<svg width="356" height="80" viewBox="0 0 356 80" fill="none" xmlns="http://www.w3.org/2000/svg">
<path d="M18.5898 14.754C21.1658 16.238 22.4538 18.478 22.4538 21.474C22.4538 23.966 21.5718 26.01 19.8078 27.606C18.0438 29.202 15.8738 30 13.2978 30H0.82375V0.599998H12.4158C14.9358 0.599998 17.0498 1.384 18.7578 2.952C20.4938 4.492 21.3618 6.466 21.3618 8.874C21.3618 11.31 20.4378 13.27 18.5898 14.754ZM12.4158 6.018H6.61975V12.486H12.4158C13.3118 12.486 14.0538 12.178 14.6418 11.562C15.2578 10.946 15.5658 10.176 15.5658 9.252C15.5658 8.328 15.2718 7.558 14.6838 6.942C14.0958 6.326 13.3398 6.018 12.4158 6.018ZM13.2978 24.582C14.2778 24.582 15.0898 24.26 15.7338 23.616C16.3778 22.944 16.6998 22.104 16.6998 21.096C16.6998 20.116 16.3778 19.304 15.7338 18.66C15.0898 17.988 14.2778 17.652 13.2978 17.652H6.61975V24.582H13.2978ZM26.2534 0.599998H32.0494V30H26.2534V0.599998ZM56.9377 0.599998V6.144H48.9997V30H43.2037V6.144H35.3077V0.599998H56.9377ZM69.391 30.588C66.479 30.588 64.029 29.944 62.041 28.656C60.053 27.34 58.653 25.562 57.841 23.322L62.797 20.424C63.945 23.42 66.199 24.918 69.559 24.918C71.183 24.918 72.373 24.624 73.129 24.036C73.885 23.448 74.263 22.706 74.263 21.81C74.263 20.774 73.801 19.976 72.877 19.416C71.953 18.828 70.301 18.198 67.921 17.526C66.605 17.134 65.485 16.742 64.561 16.35C63.665 15.958 62.755 15.44 61.831 14.796C60.935 14.124 60.249 13.284 59.773 12.276C59.297 11.268 59.059 10.092 59.059 8.748C59.059 6.088 59.997 3.974 61.873 2.406C63.777 0.809999 66.059 0.0119981 68.719 0.0119981C71.099 0.0119981 73.185 0.599998 74.977 1.776C76.797 2.924 78.211 4.534 79.219 6.606L74.347 9.42C73.171 6.9 71.295 5.64 68.719 5.64C67.515 5.64 66.563 5.92 65.863 6.48C65.191 7.012 64.855 7.712 64.855 8.58C64.855 9.504 65.233 10.26 65.989 10.848C66.773 11.408 68.257 12.024 70.441 12.696C71.337 12.976 72.009 13.2 72.457 13.368C72.933 13.508 73.563 13.746 74.347 14.082C75.159 14.39 75.775 14.684 76.195 14.964C76.643 15.244 77.147 15.622 77.707 16.098C78.267 16.574 78.687 17.064 78.967 17.568C79.275 18.072 79.527 18.688 79.723 19.416C79.947 20.116 80.059 20.886 80.059 21.726C80.059 24.442 79.065 26.598 77.077 28.194C75.117 29.79 72.555 30.588 69.391 30.588ZM105.301 0.599998C108.129 0.599998 110.509 1.552 112.441 3.456C114.373 5.36 115.339 7.698 115.339 10.47C115.339 13.242 114.373 15.58 112.441 17.484C110.509 19.388 108.129 20.34 105.301 20.34H100.135V30H94.3394V0.599998H105.301ZM105.301 14.922C106.533 14.922 107.555 14.502 108.367 13.662C109.179 12.794 109.585 11.73 109.585 10.47C109.585 9.182 109.179 8.118 108.367 7.278C107.555 6.438 106.533 6.018 105.301 6.018H100.135V14.922H105.301ZM119.113 0.599998H124.909V30H119.113V0.599998ZM136.147 24.456H147.361V30H130.351V0.599998H136.147V24.456ZM170.374 30L168.61 24.708H156.892L155.128 30H148.87L159.16 0.599998H166.342L176.674 30H170.374ZM158.74 19.29H166.804L162.772 7.278L158.74 19.29ZM196.539 0.599998H202.335V30H197.925L185.325 12.024V30H179.529V0.599998H183.939L196.539 18.534V0.599998ZM207.789 0.599998H213.585V30H207.789V0.599998ZM233.097 27.228H246.537V30H230.157V0.599998H233.097V27.228ZM253.141 3.96C252.749 4.352 252.273 4.548 251.713 4.548C251.153 4.548 250.677 4.352 250.285 3.96C249.893 3.568 249.697 3.092 249.697 2.532C249.697 1.972 249.893 1.496 250.285 1.104C250.677 0.711999 251.153 0.515999 251.713 0.515999C252.273 0.515999 252.749 0.711999 253.141 1.104C253.533 1.496 253.729 1.972 253.729 2.532C253.729 3.092 253.533 3.568 253.141 3.96ZM250.327 30V9H253.099V30H250.327ZM270.237 8.496C273.233 8.496 275.781 9.56 277.881 11.688C280.009 13.816 281.073 16.42 281.073 19.5C281.073 22.58 280.009 25.184 277.881 27.312C275.781 29.44 273.233 30.504 270.237 30.504C266.513 30.504 263.685 28.964 261.753 25.884V30H258.981V0.599998H261.753V13.116C263.685 10.036 266.513 8.496 270.237 8.496ZM264.147 25.422C265.743 27.018 267.703 27.816 270.027 27.816C272.351 27.816 274.311 27.018 275.907 25.422C277.503 23.798 278.301 21.824 278.301 19.5C278.301 17.176 277.503 15.216 275.907 13.62C274.311 11.996 272.351 11.184 270.027 11.184C267.703 11.184 265.743 11.996 264.147 13.62C262.551 15.216 261.753 17.176 261.753 19.5C261.753 21.824 262.551 23.798 264.147 25.422ZM288.454 12.486C289.742 9.938 291.954 8.664 295.09 8.664V11.352C293.186 11.352 291.604 11.912 290.344 13.032C289.084 14.152 288.454 15.916 288.454 18.324V30H285.682V9H288.454V12.486ZM315.678 9H318.45V30H315.678V25.884C313.746 28.964 310.918 30.504 307.194 30.504C304.198 30.504 301.636 29.44 299.508 27.312C297.408 25.184 296.358 22.58 296.358 19.5C296.358 16.42 297.408 13.816 299.508 11.688C301.636 9.56 304.198 8.496 307.194 8.496C310.918 8.496 313.746 10.036 315.678 13.116V9ZM301.524 25.422C303.12 27.018 305.08 27.816 307.404 27.816C309.728 27.816 311.688 27.018 313.284 25.422C314.88 23.798 315.678 21.824 315.678 19.5C315.678 17.176 314.88 15.216 313.284 13.62C311.688 11.996 309.728 11.184 307.404 11.184C305.08 11.184 303.12 11.996 301.524 13.62C299.928 15.216 299.13 17.176 299.13 19.5C299.13 21.824 299.928 23.798 301.524 25.422ZM327.091 12.486C328.379 9.938 330.591 8.664 333.727 8.664V11.352C331.823 11.352 330.241 11.912 328.981 13.032C327.721 14.152 327.091 15.916 327.091 18.324V30H324.319V9H327.091V12.486ZM353.056 9H355.996L347.008 31.932C346.196 34.004 345.034 35.628 343.522 36.804C342.038 38.008 340.372 38.54 338.524 38.4V35.796C341.044 36.076 342.962 34.62 344.278 31.428L344.824 30.126L335.416 9H338.356L346.252 26.598L353.056 9ZM116.38 49.6C119.012 49.6 121.21 50.482 122.974 52.246C124.738 54.01 125.62 56.208 125.62 58.84C125.62 61.472 124.738 63.67 122.974 65.434C121.21 67.198 119.012 68.08 116.38 68.08H108.82V79H105.88V49.6H116.38ZM116.38 65.308C118.2 65.308 119.698 64.706 120.874 63.502C122.078 62.27 122.68 60.716 122.68 58.84C122.68 56.964 122.078 55.424 120.874 54.22C119.698 52.988 118.2 52.372 116.38 52.372H108.82V65.308H116.38ZM132.595 61.486C133.883 58.938 136.095 57.664 139.231 57.664V60.352C137.327 60.352 135.745 60.912 134.485 62.032C133.225 63.152 132.595 64.916 132.595 67.324V79H129.823V58H132.595V61.486ZM151.46 57.496C154.568 57.496 157.074 58.602 158.978 60.814C160.91 62.998 161.876 65.588 161.876 68.584C161.876 68.892 161.848 69.326 161.792 69.886H143.354C143.634 72.014 144.53 73.708 146.042 74.968C147.582 76.2 149.472 76.816 151.712 76.816C153.308 76.816 154.68 76.494 155.828 75.85C157.004 75.178 157.886 74.31 158.474 73.246L160.91 74.674C159.986 76.158 158.726 77.334 157.13 78.202C155.534 79.07 153.714 79.504 151.67 79.504C148.366 79.504 145.678 78.468 143.606 76.396C141.534 74.324 140.498 71.692 140.498 68.5C140.498 65.364 141.52 62.746 143.564 60.646C145.608 58.546 148.24 57.496 151.46 57.496ZM151.46 60.184C149.276 60.184 147.442 60.842 145.958 62.158C144.502 63.446 143.634 65.126 143.354 67.198H159.02C158.74 64.986 157.886 63.264 156.458 62.032C155.03 60.8 153.364 60.184 151.46 60.184ZM167.649 63.502C167.649 64.454 168.069 65.21 168.909 65.77C169.749 66.33 170.771 66.764 171.975 67.072C173.179 67.38 174.383 67.73 175.587 68.122C176.791 68.486 177.813 69.116 178.653 70.012C179.493 70.88 179.913 72.028 179.913 73.456C179.913 75.248 179.199 76.704 177.771 77.824C176.371 78.944 174.551 79.504 172.311 79.504C170.295 79.504 168.573 79.056 167.145 78.16C165.745 77.264 164.765 76.102 164.205 74.674L166.557 73.288C166.949 74.38 167.649 75.248 168.657 75.892C169.693 76.508 170.911 76.816 172.311 76.816C173.683 76.816 174.831 76.55 175.755 76.018C176.679 75.458 177.141 74.604 177.141 73.456C177.141 72.504 176.721 71.748 175.881 71.188C175.041 70.628 174.019 70.194 172.815 69.886C171.611 69.578 170.407 69.242 169.203 68.878C167.999 68.486 166.977 67.856 166.137 66.988C165.297 66.092 164.877 64.93 164.877 63.502C164.877 61.794 165.549 60.366 166.893 59.218C168.265 58.07 169.987 57.496 172.059 57.496C173.767 57.496 175.265 57.888 176.553 58.672C177.841 59.428 178.793 60.464 179.409 61.78L177.099 63.124C176.287 61.164 174.607 60.184 172.059 60.184C170.855 60.184 169.819 60.478 168.951 61.066C168.083 61.626 167.649 62.438 167.649 63.502ZM193.624 57.496C196.732 57.496 199.238 58.602 201.142 60.814C203.074 62.998 204.04 65.588 204.04 68.584C204.04 68.892 204.012 69.326 203.956 69.886H185.518C185.798 72.014 186.694 73.708 188.206 74.968C189.746 76.2 191.636 76.816 193.876 76.816C195.472 76.816 196.844 76.494 197.992 75.85C199.168 75.178 200.05 74.31 200.638 73.246L203.074 74.674C202.15 76.158 200.89 77.334 199.294 78.202C197.698 79.07 195.878 79.504 193.834 79.504C190.53 79.504 187.842 78.468 185.77 76.396C183.698 74.324 182.662 71.692 182.662 68.5C182.662 65.364 183.684 62.746 185.728 60.646C187.772 58.546 190.404 57.496 193.624 57.496ZM193.624 60.184C191.44 60.184 189.606 60.842 188.122 62.158C186.666 63.446 185.798 65.126 185.518 67.198H201.184C200.904 64.986 200.05 63.264 198.622 62.032C197.194 60.8 195.528 60.184 193.624 60.184ZM218.278 57.496C220.826 57.496 222.828 58.28 224.284 59.848C225.768 61.388 226.51 63.474 226.51 66.106V79H223.738V66.106C223.738 64.23 223.234 62.774 222.226 61.738C221.246 60.702 219.846 60.184 218.026 60.184C216.01 60.184 214.372 60.828 213.112 62.116C211.852 63.376 211.222 65.336 211.222 67.996V79H208.45V58H211.222V61.276C212.79 58.756 215.142 57.496 218.278 57.496ZM243 60.688H236.952V73.414C236.952 74.562 237.176 75.388 237.624 75.892C238.072 76.368 238.744 76.62 239.64 76.648C240.536 76.648 241.656 76.62 243 76.564V79C240.06 79.448 237.848 79.238 236.364 78.37C234.908 77.502 234.18 75.85 234.18 73.414V60.688H229.77V58H234.18V52.96L236.952 52.12V58H243V60.688ZM248.532 63.502C248.532 64.454 248.952 65.21 249.792 65.77C250.632 66.33 251.654 66.764 252.858 67.072C254.062 67.38 255.266 67.73 256.47 68.122C257.674 68.486 258.696 69.116 259.536 70.012C260.376 70.88 260.796 72.028 260.796 73.456C260.796 75.248 260.082 76.704 258.654 77.824C257.254 78.944 255.434 79.504 253.194 79.504C251.178 79.504 249.456 79.056 248.028 78.16C246.628 77.264 245.648 76.102 245.088 74.674L247.44 73.288C247.832 74.38 248.532 75.248 249.54 75.892C250.576 76.508 251.794 76.816 253.194 76.816C254.566 76.816 255.714 76.55 256.638 76.018C257.562 75.458 258.024 74.604 258.024 73.456C258.024 72.504 257.604 71.748 256.764 71.188C255.924 70.628 254.902 70.194 253.698 69.886C252.494 69.578 251.29 69.242 250.086 68.878C248.882 68.486 247.86 67.856 247.02 66.988C246.18 66.092 245.76 64.93 245.76 63.502C245.76 61.794 246.432 60.366 247.776 59.218C249.148 58.07 250.87 57.496 252.942 57.496C254.65 57.496 256.148 57.888 257.436 58.672C258.724 59.428 259.676 60.464 260.292 61.78L257.982 63.124C257.17 61.164 255.49 60.184 252.942 60.184C251.738 60.184 250.702 60.478 249.834 61.066C248.966 61.626 248.532 62.438 248.532 63.502Z" fill="black"/>
</svg>
