<svg width="194" height="239" viewBox="0 0 194 239" fill="none" xmlns="http://www.w3.org/2000/svg">
<path d="M52.824 216.2C54.44 216.2 55.8 216.744 56.904 217.832C58.008 218.92 58.56 220.256 58.56 221.84C58.56 223.424 58.008 224.76 56.904 225.848C55.8 226.936 54.44 227.48 52.824 227.48H49.872V233H46.56V216.2H52.824ZM52.824 224.384C53.528 224.384 54.112 224.144 54.576 223.664C55.04 223.168 55.272 222.56 55.272 221.84C55.272 221.104 55.04 220.496 54.576 220.016C54.112 219.536 53.528 219.296 52.824 219.296H49.872V224.384H52.824ZM62.3914 228.272C62.8074 229.776 63.9354 230.528 65.7754 230.528C66.9594 230.528 67.8554 230.128 68.4634 229.328L70.9594 230.768C69.7754 232.48 68.0314 233.336 65.7274 233.336C63.7434 233.336 62.1514 232.736 60.9514 231.536C59.7514 230.336 59.1514 228.824 59.1514 227C59.1514 225.192 59.7434 223.688 60.9274 222.488C62.1114 221.272 63.6314 220.664 65.4874 220.664C67.2474 220.664 68.6954 221.272 69.8314 222.488C70.9834 223.704 71.5594 225.208 71.5594 227C71.5594 227.4 71.5194 227.824 71.4394 228.272H62.3914ZM62.3434 225.872H68.4634C68.2874 225.056 67.9194 224.448 67.3594 224.048C66.8154 223.648 66.1914 223.448 65.4874 223.448C64.6554 223.448 63.9674 223.664 63.4234 224.096C62.8794 224.512 62.5194 225.104 62.3434 225.872ZM80.3927 220.664C81.7047 220.664 82.7847 221.104 83.6327 221.984C84.4967 222.864 84.9287 224.08 84.9287 225.632V233H81.8327V226.016C81.8327 225.216 81.6167 224.608 81.1847 224.192C80.7527 223.76 80.1767 223.544 79.4567 223.544C78.6567 223.544 78.0167 223.792 77.5367 224.288C77.0567 224.784 76.8167 225.528 76.8167 226.52V233H73.7207V221H76.8167V222.344C77.5687 221.224 78.7607 220.664 80.3927 220.664ZM96.7643 221H99.7883V232.424C99.7883 234.28 99.1723 235.696 97.9403 236.672C96.7243 237.648 95.2523 238.136 93.5243 238.136C92.2283 238.136 91.0843 237.888 90.0923 237.392C89.1163 236.896 88.3643 236.168 87.8363 235.208L90.4763 233.696C91.0843 234.816 92.1323 235.376 93.6203 235.376C94.5963 235.376 95.3643 235.12 95.9243 234.608C96.4843 234.096 96.7643 233.368 96.7643 232.424V231.128C95.8523 232.344 94.5723 232.952 92.9243 232.952C91.2283 232.952 89.8043 232.36 88.6523 231.176C87.5163 229.976 86.9482 228.52 86.9482 226.808C86.9482 225.112 87.5243 223.664 88.6763 222.464C89.8283 221.264 91.2443 220.664 92.9243 220.664C94.5723 220.664 95.8523 221.272 96.7643 222.488V221ZM90.9803 229.184C91.6203 229.792 92.4283 230.096 93.4043 230.096C94.3803 230.096 95.1803 229.792 95.8043 229.184C96.4443 228.56 96.7643 227.768 96.7643 226.808C96.7643 225.864 96.4443 225.088 95.8043 224.48C95.1803 223.856 94.3803 223.544 93.4043 223.544C92.4283 223.544 91.6203 223.856 90.9803 224.48C90.3563 225.088 90.0443 225.864 90.0443 226.808C90.0443 227.768 90.3563 228.56 90.9803 229.184ZM110.516 221H113.612V233H110.516V231.656C109.764 232.776 108.572 233.336 106.94 233.336C105.628 233.336 104.54 232.896 103.676 232.016C102.828 231.136 102.404 229.92 102.404 228.368V221H105.5V227.984C105.5 228.784 105.716 229.4 106.148 229.832C106.58 230.248 107.156 230.456 107.876 230.456C108.676 230.456 109.316 230.208 109.796 229.712C110.276 229.216 110.516 228.472 110.516 227.48V221ZM117.983 219.56C117.471 219.56 117.023 219.376 116.639 219.008C116.271 218.624 116.087 218.176 116.087 217.664C116.087 217.152 116.271 216.704 116.639 216.32C117.023 215.936 117.471 215.744 117.983 215.744C118.511 215.744 118.959 215.936 119.327 216.32C119.711 216.704 119.903 217.152 119.903 217.664C119.903 218.176 119.711 218.624 119.327 219.008C118.959 219.376 118.511 219.56 117.983 219.56ZM116.447 233V221H119.543V233H116.447ZM129.049 220.664C130.361 220.664 131.441 221.104 132.289 221.984C133.153 222.864 133.585 224.08 133.585 225.632V233H130.489V226.016C130.489 225.216 130.273 224.608 129.841 224.192C129.409 223.76 128.833 223.544 128.113 223.544C127.313 223.544 126.673 223.792 126.193 224.288C125.713 224.784 125.473 225.528 125.473 226.52V233H122.377V221H125.473V222.344C126.225 221.224 127.417 220.664 129.049 220.664ZM138.845 228.272C139.261 229.776 140.389 230.528 142.229 230.528C143.413 230.528 144.309 230.128 144.917 229.328L147.413 230.768C146.229 232.48 144.485 233.336 142.181 233.336C140.197 233.336 138.605 232.736 137.405 231.536C136.205 230.336 135.604 228.824 135.604 227C135.604 225.192 136.197 223.688 137.381 222.488C138.565 221.272 140.085 220.664 141.941 220.664C143.701 220.664 145.149 221.272 146.285 222.488C147.437 223.704 148.013 225.208 148.013 227C148.013 227.4 147.973 227.824 147.893 228.272H138.845ZM138.797 225.872H144.917C144.741 225.056 144.373 224.448 143.813 224.048C143.269 223.648 142.645 223.448 141.941 223.448C141.109 223.448 140.421 223.664 139.877 224.096C139.333 224.512 138.973 225.104 138.797 225.872Z" fill="white"/>
<rect width="194" height="194" rx="97" fill="#C4C4C4"/>
</svg>
