<svg width="1440" height="481" viewBox="0 0 1440 481" fill="none" xmlns="http://www.w3.org/2000/svg">
<path d="M1363.06 182.816C1387.26 148.007 1413.15 115.18 1440 84.3331V0H0V10.7539C88.0645 30.2807 174.677 61.6933 258.387 103.86C621.29 -18.3948 1012.26 7.64091 1363.06 182.816Z" fill="#8E60A8"/>
<path d="M258.387 103.86C174.677 61.6934 88.0645 30.2807 0 10.7539V181.401C64.1129 152.535 130.645 133.575 198.145 125.651C229.113 121.972 260.323 120.274 291.29 121.123C280.403 115.18 269.274 109.52 258.387 103.86Z" fill="#00B5AD"/>
<path d="M1363.06 182.816C1303.06 268.847 1251.77 366.198 1211.37 470.907C1263.15 480.246 1315.4 483.359 1367.66 477.416C1391.85 474.869 1416.05 469.775 1440 462.7V224.133V84.616C1413.15 115.18 1387.5 148.29 1363.06 182.816Z" fill="#00AEE4"/>
<path d="M258.387 103.86C269.516 109.52 280.403 115.18 291.29 121.123C320.807 121.972 350.565 124.802 379.839 129.613C549.919 158.196 708.871 254.132 868.548 338.182C979.113 396.479 1094.03 449.965 1211.13 470.907C1251.53 366.198 1302.82 268.847 1362.82 182.816C1012.26 7.64116 621.29 -18.3945 258.387 103.86Z" fill="#FAC90E"/>
<path d="M898.065 135.839C902.178 135.273 906.532 134.99 910.645 134.424C915 133.858 919.597 133.575 923.952 133.292C928.065 133.009 932.419 132.443 936.532 132.16C941.129 131.877 945.484 131.311 950.081 131.028C954.194 130.745 958.306 130.462 962.661 130.179C967.258 129.896 971.855 129.613 976.452 129.33C980.565 129.047 984.678 128.764 988.79 128.481C993.387 128.198 997.984 127.915 1002.58 127.632C1006.69 127.349 1010.81 127.066 1014.92 127.066C1019.52 126.783 1024.11 126.783 1028.71 126.5C1032.82 126.217 1036.94 126.217 1041.05 125.934C1045.65 125.651 1050.48 125.651 1055.08 125.651C1059.19 125.651 1063.06 125.368 1067.18 125.368C1072.02 125.368 1076.61 125.085 1081.45 125.085C1085.32 125.085 1089.44 124.802 1093.31 124.802C1098.15 124.802 1102.98 124.802 1107.82 124.802C1111.69 124.802 1115.56 124.802 1119.19 124.802C1124.27 124.802 1129.35 124.802 1134.44 124.802C1138.06 124.802 1141.69 124.802 1145.32 124.802C1150.4 124.802 1155.73 125.085 1160.81 125.085C1164.19 125.085 1167.82 125.085 1171.21 125.368C1176.77 125.651 1182.34 125.651 1187.9 125.934C1191.05 125.934 1194.19 126.217 1197.34 126.217C1206.05 126.5 1214.76 127.066 1223.23 127.349C1224.92 126.217 1226.61 124.802 1228.55 123.67C1021.45 44.7136 804.436 14.7159 589.839 33.9597C492.581 42.7326 396.048 61.4104 301.21 89.9931C286.936 94.238 272.661 98.766 258.387 103.577C269.516 109.237 280.403 114.897 291.29 120.84C320.807 121.689 350.565 124.519 379.839 129.33C385.645 130.179 391.21 131.311 396.774 132.443C459.919 144.894 521.855 166.119 582.581 192.438C605.807 186.212 629.032 180.552 652.5 175.458C665.081 172.628 677.661 170.081 690.242 167.534C694.355 166.685 698.468 165.836 702.581 164.987C711.048 163.289 719.516 161.591 727.742 160.176C732.823 159.327 737.903 158.478 742.984 157.629C750.484 156.214 757.984 154.799 765.484 153.667C770.807 152.818 776.371 151.969 781.694 151.12C789.436 149.988 796.936 148.573 804.677 147.441H804.919C810 146.592 814.839 146.026 819.919 145.46C824.032 144.894 828.387 144.328 832.5 143.762C836.855 143.196 841.452 142.63 845.807 142.064C849.919 141.498 854.274 140.932 858.387 140.366C862.742 139.8 867.339 139.235 871.694 138.669C875.806 138.103 880.161 137.537 884.274 137.254C889.113 136.688 893.71 136.122 898.065 135.839Z" fill="#F9A020"/>
<path d="M607.5 40.5C918 11.5 1116.85 66.617 1361.42 185C1426.14 127.718 1490 66.1927 1553 0H500C535.51 15.2752 572.562 21.8303 607.5 40.5Z" fill="#EE2F78"/>
<path d="M102.581 39.0532C155.323 56.599 207.581 78.1068 258.387 103.86C272.661 99.0486 286.936 94.5206 301.21 90.2757C299.274 89.4267 297.339 88.8607 295.403 88.0117C232.258 63.108 167.419 44.7132 102.581 39.0532Z" fill="#634A9E"/>
<path d="M102.581 39.0536C68.7097 27.7337 34.5968 18.3948 0 10.7539V41.3176C34.1129 36.5066 68.2258 35.9406 102.581 39.0536Z" fill="#5ABD77"/>
<path d="M1211.37 471.19C1263.15 480.529 1315.4 483.641 1367.66 477.699C1391.85 475.152 1416.05 470.058 1440 462.983V327.993C1379.27 345.822 1318.06 358.274 1256.85 365.632C1240.65 399.591 1225.4 434.966 1211.37 471.19Z" fill="#7CCBB8"/>
<path d="M874.597 341.294C983.468 398.46 1096.45 450.248 1211.37 470.907C1225.4 434.683 1240.65 399.592 1257.1 365.349C1129.35 380.631 1001.13 372.707 874.597 341.294Z" fill="#F9A020"/>
</svg>
