<svg width="1440" height="728" viewBox="0 0 1440 728" fill="none" xmlns="http://www.w3.org/2000/svg">
<path d="M1213.95 276.178C1073.72 393.926 917.628 456.907 759.362 496.808C857.617 539.057 955.873 582.087 1055.68 614.556C1181.61 655.239 1312.52 678.319 1440 657.978V0C1376.57 111.488 1298.21 205.373 1213.95 276.178Z" fill="#42C1C3"/>
<path d="M439.098 554.313C499.731 546.881 560.363 537.492 620.996 526.539C667.014 517.933 713.343 508.544 759.362 496.809C691.578 467.861 623.483 439.304 555.077 415.833C498.176 396.273 440.964 379.844 383.441 366.934C228.595 420.527 76.2363 490.158 -72.7019 575.046C95.5143 582.087 263.73 575.437 431.636 555.095C432.879 555.095 437.854 554.313 439.098 554.313Z" fill="#FAC90E"/>
<path d="M1055.68 614.555C955.873 582.087 857.618 538.665 759.362 496.808C713.343 508.543 667.014 517.932 620.996 526.538C559.43 537.882 497.554 547.271 435.678 554.704C588.658 634.897 746.613 692.793 906.745 728H1440V658.368C1312.52 678.319 1181.61 655.239 1055.68 614.555Z" fill="#EE2F78"/>
<path d="M-411 393.144V542.187V728.001H-312.433C-233.767 672.452 -154.167 621.598 -73.0129 575.046C75.6143 489.768 228.284 420.136 383.13 366.935C120.078 307.474 -149.503 316.863 -411 393.144Z" fill="#61CAE3"/>
<path d="M-73.0129 575.046C-153.856 621.597 -233.767 672.451 -312.433 728H906.435C746.303 693.184 588.347 635.289 435.367 554.704C266.529 575.437 96.758 582.087 -73.0129 575.046Z" fill="#FAA21B"/>
<path d="M3.16605 577.391C-1.18704 577.391 -5.54011 577.392 -9.58228 577.002C-5.22918 577.002 -1.18704 577.391 3.16605 577.391Z" fill="#8E60A8"/>
<path d="M180.4 575.434C185.375 575.044 190.35 575.044 195.325 574.654C190.35 575.044 185.375 575.044 180.4 575.434Z" fill="#FAC90E"/>
<path d="M148.684 576.609C153.659 576.609 158.634 576.219 163.609 576.219C158.634 576.219 153.659 576.219 148.684 576.609Z" fill="#FAC90E"/>
<path d="M463.351 551.183C469.881 550.4 476.721 549.618 483.251 548.445C476.721 549.618 469.881 550.4 463.351 551.183Z" fill="#FAC90E"/>
<path d="M401.786 558.616C406.761 558.225 412.047 557.443 417.022 556.66C412.047 557.443 407.072 558.225 401.786 558.616Z" fill="#FAC90E"/>
<path d="M116.969 577.391C121.943 577.391 126.918 577.002 131.893 577.002C126.918 577.002 121.943 577.002 116.969 577.391Z" fill="#FAC90E"/>
<path d="M559.43 537.098C564.716 536.316 569.691 535.535 574.977 534.753C570.002 535.535 564.716 536.316 559.43 537.098Z" fill="#FAC90E"/>
<path d="M510.613 544.533C516.832 543.751 523.051 542.577 529.269 541.795C523.051 542.968 516.832 543.751 510.613 544.533Z" fill="#FAC90E"/>
<path d="M370.07 562.137C375.045 561.745 380.331 560.963 385.306 560.572C380.331 560.963 375.356 561.354 370.07 562.137Z" fill="#FAC90E"/>
<path d="M338.666 565.266C343.952 564.875 348.927 564.092 354.213 563.701C348.927 564.092 343.641 564.484 338.666 565.266Z" fill="#FAC90E"/>
<path d="M243.83 572.305C248.805 571.915 254.091 571.524 259.066 571.134C253.78 571.524 248.805 571.915 243.83 572.305Z" fill="#FAC90E"/>
<path d="M306.95 567.612C311.925 567.221 317.211 566.83 322.186 566.439C317.211 566.83 312.236 567.221 306.95 567.612Z" fill="#FAC90E"/>
<path d="M212.115 573.87C217.09 573.48 222.065 573.48 227.04 573.09C222.065 573.48 217.09 573.87 212.115 573.87Z" fill="#FAC90E"/>
<path d="M275.235 570.351C280.21 569.96 285.496 569.569 290.471 569.178C285.496 569.569 280.521 569.96 275.235 570.351Z" fill="#FAC90E"/>
<path d="M1233.23 410.356C1302.88 394.317 1372.22 362.631 1439.69 315.688V0C1376.26 111.488 1297.9 204.982 1213.64 276.178C1148.65 330.945 1080.25 373.584 1009.98 407.617C1041.38 415.832 1073.1 420.526 1104.81 422.091C1147.72 424.438 1190.63 420.526 1233.23 410.356Z" fill="#2BB6B8"/>
<path d="M1407.04 662.281C1319.98 612.991 1234.16 547.663 1150.52 467.47C1083.36 510.5 1015.57 546.489 947.167 575.437C983.236 589.52 1019.3 602.82 1055.68 614.556C1171.04 651.719 1290.13 674.017 1407.04 662.281Z" fill="#2BB6B8"/>
<path d="M3.16614 533.189C-22.3306 546.88 -47.5164 560.572 -72.7021 575.046C-62.1303 575.437 -51.5585 575.828 -40.9867 576.219C-37.5664 576.219 -34.1461 576.219 -31.0368 576.61C-23.8853 577.001 -16.7337 577.002 -9.5822 577.002C-5.2291 577.002 -0.876022 577.002 3.16614 577.393C9.38486 577.393 15.6036 577.784 22.1332 577.784C26.4863 577.784 31.1504 577.784 35.5035 577.784C41.7222 577.784 47.63 577.784 53.8487 577.784C58.5127 577.784 63.1768 577.784 68.1517 577.784C74.0595 577.784 79.6563 577.784 85.5641 577.784C89.6063 577.784 93.9594 577.784 98.0015 577.784C65.9751 564.093 34.5706 549.227 3.16614 533.189Z" fill="#EEBE1B"/>
<path d="M574.977 534.362C569.691 535.145 564.716 535.927 559.43 536.709C549.169 538.274 539.219 539.839 528.958 541.404C522.74 542.186 516.521 543.36 510.302 544.142C501.285 545.315 491.957 546.88 482.94 548.054C476.41 548.836 469.57 549.619 463.04 550.792C454.956 551.966 446.871 553.139 438.787 553.922C438.165 553.922 436.922 554.313 435.367 554.313C435.367 554.313 435.367 554.313 435.056 554.313C509.059 593.04 584.305 626.683 660.484 655.239C756.252 641.939 852.021 615.338 946.856 575.046C884.047 550.401 821.549 523.018 758.74 496.417C712.721 508.153 666.392 517.541 620.374 526.147C605.76 529.277 590.213 532.015 574.977 534.362Z" fill="#E31765"/>
<path d="M529.269 541.796C539.53 540.231 549.48 538.666 559.741 537.101C549.48 538.666 539.219 540.231 529.269 541.796Z" fill="#E31765"/>
<path d="M483.251 548.445C492.268 547.271 501.596 545.706 510.613 544.533C501.285 545.706 492.268 547.271 483.251 548.445Z" fill="#E31765"/>
<path d="M574.977 534.361C590.213 531.623 605.448 529.276 620.684 526.147C605.759 529.276 590.213 532.014 574.977 534.361Z" fill="#E31765"/>
<path d="M463.351 551.183C454.023 552.356 444.695 553.53 435.678 554.704C437.232 554.704 438.476 554.313 439.098 554.313C447.182 553.139 455.267 552.356 463.351 551.183Z" fill="#E31765"/>
<path d="M3.16531 533.188C-86.3842 486.637 -174.69 427.959 -261.752 357.154C-311.812 366.934 -361.251 378.669 -410.69 393.143V542.186V728H-312.123C-233.457 672.451 -153.857 621.597 -72.7029 575.045C-47.8281 560.572 -22.3314 546.489 3.16531 533.188Z" fill="#46BDD9"/>
<path d="M435.367 554.704C433.812 554.704 432.257 555.095 431.635 555.095C426.971 555.486 421.996 556.269 417.332 556.66C412.357 557.442 407.072 557.834 402.097 558.616C396.811 559.398 391.214 559.79 385.928 560.181C380.953 560.572 375.667 561.354 370.692 561.745C365.406 562.137 359.809 562.919 354.523 563.31C349.237 563.701 344.262 564.484 338.977 564.875C333.691 565.266 328.094 565.657 322.808 566.44C317.833 566.831 312.547 567.222 307.572 567.613C301.975 568.004 296.689 568.396 291.093 568.787C286.118 569.178 280.832 569.569 275.857 569.961C270.26 570.352 264.974 570.743 259.377 571.134C254.402 571.525 249.116 571.916 244.141 572.308C238.544 572.699 232.948 573.09 227.351 573.09C222.376 573.481 217.401 573.481 212.426 573.872C206.829 574.264 201.232 574.263 195.635 574.655C190.66 575.046 185.685 575.046 180.71 575.437C175.114 575.828 169.517 575.828 163.92 575.828C158.945 575.828 153.97 576.219 148.995 576.219C143.398 576.219 137.801 576.611 132.204 576.611C127.229 576.611 122.254 577.002 117.279 577.002C111.683 577.002 106.086 577.002 100.178 577.393C99.5561 577.393 98.6233 577.393 98.0015 577.393C283.941 655.239 472.99 681.449 661.106 655.239C584.927 627.074 509.68 593.432 435.367 554.704Z" fill="#EF9621"/>
<path d="M22.1333 577.782C15.9146 577.782 9.69589 577.393 3.16626 577.393C9.38495 577.393 15.9146 577.393 22.1333 577.782Z" fill="#EF9621"/>
<path d="M163.609 575.827C169.206 575.827 174.803 575.437 180.4 575.437C174.803 575.826 169.206 575.827 163.609 575.827Z" fill="#EF9621"/>
<path d="M195.324 574.655C200.921 574.264 206.518 574.264 212.115 573.873C206.518 574.264 200.921 574.655 195.324 574.655Z" fill="#EF9621"/>
<path d="M385.617 560.571C390.903 560.18 396.5 559.398 401.786 559.006C396.5 559.398 390.903 559.789 385.617 560.571Z" fill="#EF9621"/>
<path d="M259.066 571.133C264.663 570.742 269.949 570.351 275.546 569.96C269.949 570.742 264.352 570.742 259.066 571.133Z" fill="#EF9621"/>
<path d="M227.04 573.09C232.637 572.699 238.234 572.308 243.83 572.308C238.234 572.699 232.637 572.699 227.04 573.09Z" fill="#EF9621"/>
<path d="M131.894 577C137.491 577 143.087 576.61 148.684 576.61C143.087 576.61 137.491 576.61 131.894 577Z" fill="#EF9621"/>
<path d="M435.367 554.704C429.459 555.486 423.24 556.269 417.332 556.66C421.996 556.269 426.971 555.486 431.635 555.095C431.946 555.095 433.501 555.095 435.367 554.704Z" fill="#EF9621"/>
<path d="M354.213 563.701C359.498 563.31 365.095 562.527 370.381 562.136C364.784 562.527 359.498 562.918 354.213 563.701Z" fill="#EF9621"/>
<path d="M290.471 569.177C296.068 568.786 301.354 568.396 306.95 568.005C301.664 568.396 296.068 568.786 290.471 569.177Z" fill="#EF9621"/>
<path d="M322.186 566.44C327.472 566.049 333.069 565.657 338.355 564.875C333.069 565.657 327.783 566.049 322.186 566.44Z" fill="#EF9621"/>
<path d="M100.178 577.391C105.775 577.391 111.372 577.392 117.28 577.002C111.372 577.392 105.775 577.391 100.178 577.391Z" fill="#EF9621"/>
</svg>
