<svg width="546" height="117" viewBox="0 0 546 117" fill="none" xmlns="http://www.w3.org/2000/svg">
<g filter="url(#filter0_b)">
<rect width="546" height="117" rx="58.5" fill="white" fill-opacity="0.3"/>
<rect x="1" y="1" width="544" height="115" rx="57.5" stroke="url(#paint0_linear)" stroke-width="2"/>
</g>
<path d="M54.8457 51V25.2305H63.1953C66.3594 25.2305 68.4219 25.3594 69.3828 25.6172C70.8594 26.0039 72.0957 26.8477 73.0918 28.1484C74.0879 29.4375 74.5859 31.1074 74.5859 33.1582C74.5859 34.7402 74.2988 36.0703 73.7246 37.1484C73.1504 38.2266 72.418 39.0762 71.5273 39.6973C70.6484 40.3066 69.752 40.7109 68.8379 40.9102C67.5957 41.1562 65.7969 41.2793 63.4414 41.2793H60.0488V51H54.8457ZM60.0488 29.5898V36.9023H62.8965C64.9473 36.9023 66.3184 36.7676 67.0098 36.498C67.7012 36.2285 68.2402 35.8066 68.627 35.2324C69.0254 34.6582 69.2246 33.9902 69.2246 33.2285C69.2246 32.291 68.9492 31.5176 68.3984 30.9082C67.8477 30.2988 67.1504 29.918 66.3066 29.7656C65.6855 29.6484 64.4375 29.5898 62.5625 29.5898H60.0488ZM82.5137 38.0273L78.0312 37.2188C78.5352 35.4141 79.4023 34.0781 80.6328 33.2109C81.8633 32.3438 83.6914 31.9102 86.1172 31.9102C88.3203 31.9102 89.9609 32.1738 91.0391 32.7012C92.1172 33.2168 92.873 33.8789 93.3066 34.6875C93.752 35.4844 93.9746 36.9551 93.9746 39.0996L93.9219 44.8652C93.9219 46.5059 93.998 47.7188 94.1504 48.5039C94.3145 49.2773 94.6133 50.1094 95.0469 51H90.1602C90.0312 50.6719 89.873 50.1855 89.6855 49.541C89.6035 49.248 89.5449 49.0547 89.5098 48.9609C88.666 49.7812 87.7637 50.3965 86.8027 50.8066C85.8418 51.2168 84.8164 51.4219 83.7266 51.4219C81.8047 51.4219 80.2871 50.9004 79.1738 49.8574C78.0723 48.8145 77.5215 47.4961 77.5215 45.9023C77.5215 44.8477 77.7734 43.9102 78.2773 43.0898C78.7812 42.2578 79.4844 41.625 80.3867 41.1914C81.3008 40.7461 82.6133 40.3594 84.3242 40.0312C86.6328 39.5977 88.2324 39.1934 89.123 38.8184V38.3262C89.123 37.377 88.8887 36.7031 88.4199 36.3047C87.9512 35.8945 87.0664 35.6895 85.7656 35.6895C84.8867 35.6895 84.2012 35.8652 83.709 36.2168C83.2168 36.5566 82.8184 37.1602 82.5137 38.0273ZM89.123 42.0352C88.4902 42.2461 87.4883 42.498 86.1172 42.791C84.7461 43.084 83.8496 43.3711 83.4277 43.6523C82.7832 44.1094 82.4609 44.6895 82.4609 45.3926C82.4609 46.084 82.7188 46.6816 83.2344 47.1855C83.75 47.6895 84.4062 47.9414 85.2031 47.9414C86.0938 47.9414 86.9434 47.6484 87.752 47.0625C88.3496 46.6172 88.7422 46.0723 88.9297 45.4277C89.0586 45.0059 89.123 44.2031 89.123 43.0195V42.0352ZM103.59 51H98.6504V32.332H103.238V34.9863C104.023 33.7324 104.727 32.9062 105.348 32.5078C105.98 32.1094 106.695 31.9102 107.492 31.9102C108.617 31.9102 109.701 32.2207 110.744 32.8418L109.215 37.1484C108.383 36.6094 107.609 36.3398 106.895 36.3398C106.203 36.3398 105.617 36.5332 105.137 36.9199C104.656 37.2949 104.275 37.9805 103.994 38.9766C103.725 39.9727 103.59 42.0586 103.59 45.2344V51ZM121.449 32.332V36.2695H118.074V43.793C118.074 45.3164 118.104 46.207 118.162 46.4648C118.232 46.7109 118.379 46.916 118.602 47.0801C118.836 47.2441 119.117 47.3262 119.445 47.3262C119.902 47.3262 120.564 47.168 121.432 46.8516L121.854 50.6836C120.705 51.1758 119.404 51.4219 117.951 51.4219C117.061 51.4219 116.258 51.2754 115.543 50.9824C114.828 50.6777 114.301 50.291 113.961 49.8223C113.633 49.3418 113.404 48.6973 113.275 47.8887C113.17 47.3145 113.117 46.1543 113.117 44.4082V36.2695H110.85V32.332H113.117V28.623L118.074 25.7402V32.332H121.449ZM124.877 29.8008V25.2305H129.816V29.8008H124.877ZM124.877 51V32.332H129.816V51H124.877ZM151.174 37.8516L146.305 38.7305C146.141 37.7578 145.766 37.0254 145.18 36.5332C144.605 36.041 143.855 35.7949 142.93 35.7949C141.699 35.7949 140.715 36.2227 139.977 37.0781C139.25 37.9219 138.887 39.3398 138.887 41.332C138.887 43.5469 139.256 45.1113 139.994 46.0254C140.744 46.9395 141.746 47.3965 143 47.3965C143.938 47.3965 144.705 47.1328 145.303 46.6055C145.9 46.0664 146.322 45.1465 146.568 43.8457L151.42 44.6719C150.916 46.8984 149.949 48.5801 148.52 49.7168C147.09 50.8535 145.174 51.4219 142.771 51.4219C140.041 51.4219 137.861 50.5605 136.232 48.8379C134.615 47.1152 133.807 44.7305 133.807 41.6836C133.807 38.6016 134.621 36.2051 136.25 34.4941C137.879 32.7715 140.082 31.9102 142.859 31.9102C145.133 31.9102 146.938 32.4023 148.273 33.3867C149.621 34.3594 150.588 35.8477 151.174 37.8516ZM154.936 29.8008V25.2305H159.875V29.8008H154.936ZM154.936 51V32.332H159.875V51H154.936ZM164.814 32.332H169.42V35.0742C170.018 34.1367 170.826 33.375 171.846 32.7891C172.865 32.2031 173.996 31.9102 175.238 31.9102C177.406 31.9102 179.246 32.7598 180.758 34.459C182.27 36.1582 183.025 38.5254 183.025 41.5605C183.025 44.6777 182.264 47.1035 180.74 48.8379C179.217 50.5605 177.371 51.4219 175.203 51.4219C174.172 51.4219 173.234 51.2168 172.391 50.8066C171.559 50.3965 170.68 49.6934 169.754 48.6973V58.1016H164.814V32.332ZM169.701 41.3496C169.701 43.4473 170.117 45 170.949 46.0078C171.781 47.0039 172.795 47.502 173.99 47.502C175.139 47.502 176.094 47.0449 176.855 46.1309C177.617 45.2051 177.998 43.6934 177.998 41.5957C177.998 39.6387 177.605 38.1855 176.82 37.2363C176.035 36.2871 175.062 35.8125 173.902 35.8125C172.695 35.8125 171.693 36.2812 170.896 37.2188C170.1 38.1445 169.701 39.5215 169.701 41.3496ZM190.654 38.0273L186.172 37.2188C186.676 35.4141 187.543 34.0781 188.773 33.2109C190.004 32.3438 191.832 31.9102 194.258 31.9102C196.461 31.9102 198.102 32.1738 199.18 32.7012C200.258 33.2168 201.014 33.8789 201.447 34.6875C201.893 35.4844 202.115 36.9551 202.115 39.0996L202.062 44.8652C202.062 46.5059 202.139 47.7188 202.291 48.5039C202.455 49.2773 202.754 50.1094 203.188 51H198.301C198.172 50.6719 198.014 50.1855 197.826 49.541C197.744 49.248 197.686 49.0547 197.65 48.9609C196.807 49.7812 195.904 50.3965 194.943 50.8066C193.982 51.2168 192.957 51.4219 191.867 51.4219C189.945 51.4219 188.428 50.9004 187.314 49.8574C186.213 48.8145 185.662 47.4961 185.662 45.9023C185.662 44.8477 185.914 43.9102 186.418 43.0898C186.922 42.2578 187.625 41.625 188.527 41.1914C189.441 40.7461 190.754 40.3594 192.465 40.0312C194.773 39.5977 196.373 39.1934 197.264 38.8184V38.3262C197.264 37.377 197.029 36.7031 196.561 36.3047C196.092 35.8945 195.207 35.6895 193.906 35.6895C193.027 35.6895 192.342 35.8652 191.85 36.2168C191.357 36.5566 190.959 37.1602 190.654 38.0273ZM197.264 42.0352C196.631 42.2461 195.629 42.498 194.258 42.791C192.887 43.084 191.99 43.3711 191.568 43.6523C190.924 44.1094 190.602 44.6895 190.602 45.3926C190.602 46.084 190.859 46.6816 191.375 47.1855C191.891 47.6895 192.547 47.9414 193.344 47.9414C194.234 47.9414 195.084 47.6484 195.893 47.0625C196.49 46.6172 196.883 46.0723 197.07 45.4277C197.199 45.0059 197.264 44.2031 197.264 43.0195V42.0352ZM215.562 32.332V36.2695H212.188V43.793C212.188 45.3164 212.217 46.207 212.275 46.4648C212.346 46.7109 212.492 46.916 212.715 47.0801C212.949 47.2441 213.23 47.3262 213.559 47.3262C214.016 47.3262 214.678 47.168 215.545 46.8516L215.967 50.6836C214.818 51.1758 213.518 51.4219 212.064 51.4219C211.174 51.4219 210.371 51.2754 209.656 50.9824C208.941 50.6777 208.414 50.291 208.074 49.8223C207.746 49.3418 207.518 48.6973 207.389 47.8887C207.283 47.3145 207.23 46.1543 207.23 44.4082V36.2695H204.963V32.332H207.23V28.623L212.188 25.7402V32.332H215.562ZM218.99 29.8008V25.2305H223.93V29.8008H218.99ZM218.99 51V32.332H223.93V51H218.99ZM245.99 51H241.051V41.4727C241.051 39.457 240.945 38.1562 240.734 37.5703C240.523 36.9727 240.178 36.5098 239.697 36.1816C239.229 35.8535 238.66 35.6895 237.992 35.6895C237.137 35.6895 236.369 35.9238 235.689 36.3926C235.01 36.8613 234.541 37.4824 234.283 38.2559C234.037 39.0293 233.914 40.459 233.914 42.5449V51H228.975V32.332H233.562V35.0742C235.191 32.9648 237.242 31.9102 239.715 31.9102C240.805 31.9102 241.801 32.1094 242.703 32.5078C243.605 32.8945 244.285 33.3926 244.742 34.002C245.211 34.6113 245.533 35.3027 245.709 36.0762C245.896 36.8496 245.99 37.957 245.99 39.3984V51ZM250.561 52.2305L256.203 52.916C256.297 53.5723 256.514 54.0234 256.854 54.2695C257.322 54.6211 258.061 54.7969 259.068 54.7969C260.357 54.7969 261.324 54.6035 261.969 54.2168C262.402 53.959 262.73 53.543 262.953 52.9688C263.105 52.5586 263.182 51.8027 263.182 50.7012V47.9766C261.705 49.9922 259.842 51 257.592 51C255.084 51 253.098 49.9395 251.633 47.8184C250.484 46.1426 249.91 44.0566 249.91 41.5605C249.91 38.4316 250.66 36.041 252.16 34.3887C253.672 32.7363 255.547 31.9102 257.785 31.9102C260.094 31.9102 261.998 32.9238 263.498 34.9512V32.332H268.121V49.084C268.121 51.2871 267.939 52.9336 267.576 54.0234C267.213 55.1133 266.703 55.9688 266.047 56.5898C265.391 57.2109 264.512 57.6973 263.41 58.0488C262.32 58.4004 260.938 58.5762 259.262 58.5762C256.098 58.5762 253.854 58.0312 252.529 56.9414C251.205 55.8633 250.543 54.4922 250.543 52.8281C250.543 52.6641 250.549 52.4648 250.561 52.2305ZM254.973 41.2793C254.973 43.2598 255.354 44.7129 256.115 45.6387C256.889 46.5527 257.838 47.0098 258.963 47.0098C260.17 47.0098 261.189 46.541 262.021 45.6035C262.854 44.6543 263.27 43.2539 263.27 41.4023C263.27 39.4688 262.871 38.0332 262.074 37.0957C261.277 36.1582 260.27 35.6895 259.051 35.6895C257.867 35.6895 256.889 36.1523 256.115 37.0781C255.354 37.9922 254.973 39.3926 254.973 41.2793ZM283.098 25.2305H293.398C295.438 25.2305 296.955 25.3184 297.951 25.4941C298.959 25.6582 299.855 26.0098 300.641 26.5488C301.438 27.0879 302.1 27.8086 302.627 28.7109C303.154 29.6016 303.418 30.6035 303.418 31.7168C303.418 32.9238 303.09 34.0312 302.434 35.0391C301.789 36.0469 300.91 36.8027 299.797 37.3066C301.367 37.7637 302.574 38.543 303.418 39.6445C304.262 40.7461 304.684 42.041 304.684 43.5293C304.684 44.7012 304.408 45.8438 303.857 46.957C303.318 48.0586 302.574 48.9434 301.625 49.6113C300.688 50.2676 299.527 50.6719 298.145 50.8242C297.277 50.918 295.186 50.9766 291.869 51H283.098V25.2305ZM288.301 29.5195V35.4785H291.711C293.738 35.4785 294.998 35.4492 295.49 35.3906C296.381 35.2852 297.078 34.9805 297.582 34.4766C298.098 33.9609 298.355 33.2871 298.355 32.4551C298.355 31.6582 298.133 31.0137 297.688 30.5215C297.254 30.0176 296.604 29.7129 295.736 29.6074C295.221 29.5488 293.738 29.5195 291.289 29.5195H288.301ZM288.301 39.7676V46.6582H293.117C294.992 46.6582 296.182 46.6055 296.686 46.5C297.459 46.3594 298.086 46.0195 298.566 45.4805C299.059 44.9297 299.305 44.1973 299.305 43.2832C299.305 42.5098 299.117 41.8535 298.742 41.3145C298.367 40.7754 297.822 40.3828 297.107 40.1367C296.404 39.8906 294.869 39.7676 292.502 39.7676H288.301ZM307.918 41.4023C307.918 39.7617 308.322 38.1738 309.131 36.6387C309.939 35.1035 311.082 33.9316 312.559 33.123C314.047 32.3145 315.705 31.9102 317.533 31.9102C320.357 31.9102 322.672 32.8301 324.477 34.6699C326.281 36.498 327.184 38.8125 327.184 41.6133C327.184 44.4375 326.27 46.7812 324.441 48.6445C322.625 50.4961 320.334 51.4219 317.568 51.4219C315.857 51.4219 314.223 51.0352 312.664 50.2617C311.117 49.4883 309.939 48.3574 309.131 46.8691C308.322 45.3691 307.918 43.5469 307.918 41.4023ZM312.98 41.666C312.98 43.5176 313.42 44.9355 314.299 45.9199C315.178 46.9043 316.262 47.3965 317.551 47.3965C318.84 47.3965 319.918 46.9043 320.785 45.9199C321.664 44.9355 322.104 43.5059 322.104 41.6309C322.104 39.8027 321.664 38.3965 320.785 37.4121C319.918 36.4277 318.84 35.9355 317.551 35.9355C316.262 35.9355 315.178 36.4277 314.299 37.4121C313.42 38.3965 312.98 39.8145 312.98 41.666ZM329.926 41.4023C329.926 39.7617 330.33 38.1738 331.139 36.6387C331.947 35.1035 333.09 33.9316 334.566 33.123C336.055 32.3145 337.713 31.9102 339.541 31.9102C342.365 31.9102 344.68 32.8301 346.484 34.6699C348.289 36.498 349.191 38.8125 349.191 41.6133C349.191 44.4375 348.277 46.7812 346.449 48.6445C344.633 50.4961 342.342 51.4219 339.576 51.4219C337.865 51.4219 336.23 51.0352 334.672 50.2617C333.125 49.4883 331.947 48.3574 331.139 46.8691C330.33 45.3691 329.926 43.5469 329.926 41.4023ZM334.988 41.666C334.988 43.5176 335.428 44.9355 336.307 45.9199C337.186 46.9043 338.27 47.3965 339.559 47.3965C340.848 47.3965 341.926 46.9043 342.793 45.9199C343.672 44.9355 344.111 43.5059 344.111 41.6309C344.111 39.8027 343.672 38.3965 342.793 37.4121C341.926 36.4277 340.848 35.9355 339.559 35.9355C338.27 35.9355 337.186 36.4277 336.307 37.4121C335.428 38.3965 334.988 39.8145 334.988 41.666ZM352.9 51V25.2305H357.84V38.9062L363.623 32.332H369.705L363.324 39.1523L370.162 51H364.836L360.143 42.6152L357.84 45.0234V51H352.9ZM371.375 45.6738L376.332 44.918C376.543 45.8789 376.971 46.6113 377.615 47.1152C378.26 47.6074 379.162 47.8535 380.322 47.8535C381.6 47.8535 382.561 47.6191 383.205 47.1504C383.639 46.8223 383.855 46.3828 383.855 45.832C383.855 45.457 383.738 45.1465 383.504 44.9004C383.258 44.666 382.707 44.4492 381.852 44.25C377.867 43.3711 375.342 42.5684 374.275 41.8418C372.799 40.834 372.061 39.4336 372.061 37.6406C372.061 36.0234 372.699 34.6641 373.977 33.5625C375.254 32.4609 377.234 31.9102 379.918 31.9102C382.473 31.9102 384.371 32.3262 385.613 33.1582C386.855 33.9902 387.711 35.2207 388.18 36.8496L383.521 37.7109C383.322 36.9844 382.941 36.4277 382.379 36.041C381.828 35.6543 381.037 35.4609 380.006 35.4609C378.705 35.4609 377.773 35.6426 377.211 36.0059C376.836 36.2637 376.648 36.5977 376.648 37.0078C376.648 37.3594 376.812 37.6582 377.141 37.9043C377.586 38.2324 379.121 38.6953 381.746 39.293C384.383 39.8906 386.223 40.623 387.266 41.4902C388.297 42.3691 388.812 43.5938 388.812 45.1641C388.812 46.875 388.098 48.3457 386.668 49.5762C385.238 50.8066 383.123 51.4219 380.322 51.4219C377.779 51.4219 375.764 50.9062 374.275 49.875C372.799 48.8438 371.832 47.4434 371.375 45.6738ZM403.965 45.0586L408.887 45.8848C408.254 47.6895 407.252 49.0664 405.881 50.0156C404.521 50.9531 402.816 51.4219 400.766 51.4219C397.52 51.4219 395.117 50.3613 393.559 48.2402C392.328 46.541 391.713 44.3965 391.713 41.8066C391.713 38.7129 392.521 36.293 394.139 34.5469C395.756 32.7891 397.801 31.9102 400.273 31.9102C403.051 31.9102 405.242 32.8301 406.848 34.6699C408.453 36.498 409.221 39.3047 409.15 43.0898H396.775C396.811 44.5547 397.209 45.6973 397.971 46.5176C398.732 47.3262 399.682 47.7305 400.818 47.7305C401.592 47.7305 402.242 47.5195 402.77 47.0977C403.297 46.6758 403.695 45.9961 403.965 45.0586ZM404.246 40.0664C404.211 38.6367 403.842 37.5527 403.139 36.8145C402.436 36.0645 401.58 35.6895 400.572 35.6895C399.494 35.6895 398.604 36.082 397.9 36.8672C397.197 37.6523 396.852 38.7188 396.863 40.0664H404.246ZM413.193 51V25.2305H418.133V51H413.193ZM423.213 51V25.2305H428.152V51H423.213ZM444.043 45.0586L448.965 45.8848C448.332 47.6895 447.33 49.0664 445.959 50.0156C444.6 50.9531 442.895 51.4219 440.844 51.4219C437.598 51.4219 435.195 50.3613 433.637 48.2402C432.406 46.541 431.791 44.3965 431.791 41.8066C431.791 38.7129 432.6 36.293 434.217 34.5469C435.834 32.7891 437.879 31.9102 440.352 31.9102C443.129 31.9102 445.32 32.8301 446.926 34.6699C448.531 36.498 449.299 39.3047 449.229 43.0898H436.854C436.889 44.5547 437.287 45.6973 438.049 46.5176C438.811 47.3262 439.76 47.7305 440.896 47.7305C441.67 47.7305 442.32 47.5195 442.848 47.0977C443.375 46.6758 443.773 45.9961 444.043 45.0586ZM444.324 40.0664C444.289 38.6367 443.92 37.5527 443.217 36.8145C442.514 36.0645 441.658 35.6895 440.65 35.6895C439.572 35.6895 438.682 36.082 437.979 36.8672C437.275 37.6523 436.93 38.7188 436.941 40.0664H444.324ZM458 51H453.061V32.332H457.648V34.9863C458.434 33.7324 459.137 32.9062 459.758 32.5078C460.391 32.1094 461.105 31.9102 461.902 31.9102C463.027 31.9102 464.111 32.2207 465.154 32.8418L463.625 37.1484C462.793 36.6094 462.02 36.3398 461.305 36.3398C460.613 36.3398 460.027 36.5332 459.547 36.9199C459.066 37.2949 458.686 37.9805 458.404 38.9766C458.135 39.9727 458 42.0586 458 45.2344V51ZM465.559 45.6738L470.516 44.918C470.727 45.8789 471.154 46.6113 471.799 47.1152C472.443 47.6074 473.346 47.8535 474.506 47.8535C475.783 47.8535 476.744 47.6191 477.389 47.1504C477.822 46.8223 478.039 46.3828 478.039 45.832C478.039 45.457 477.922 45.1465 477.688 44.9004C477.441 44.666 476.891 44.4492 476.035 44.25C472.051 43.3711 469.525 42.5684 468.459 41.8418C466.982 40.834 466.244 39.4336 466.244 37.6406C466.244 36.0234 466.883 34.6641 468.16 33.5625C469.438 32.4609 471.418 31.9102 474.102 31.9102C476.656 31.9102 478.555 32.3262 479.797 33.1582C481.039 33.9902 481.895 35.2207 482.363 36.8496L477.705 37.7109C477.506 36.9844 477.125 36.4277 476.562 36.041C476.012 35.6543 475.221 35.4609 474.189 35.4609C472.889 35.4609 471.957 35.6426 471.395 36.0059C471.02 36.2637 470.832 36.5977 470.832 37.0078C470.832 37.3594 470.996 37.6582 471.324 37.9043C471.77 38.2324 473.305 38.6953 475.93 39.293C478.566 39.8906 480.406 40.623 481.449 41.4902C482.48 42.3691 482.996 43.5938 482.996 45.1641C482.996 46.875 482.281 48.3457 480.852 49.5762C479.422 50.8066 477.307 51.4219 474.506 51.4219C471.963 51.4219 469.947 50.9062 468.459 49.875C466.982 48.8438 466.016 47.4434 465.559 45.6738ZM150.629 79.0273L146.146 78.2188C146.65 76.4141 147.518 75.0781 148.748 74.2109C149.979 73.3438 151.807 72.9102 154.232 72.9102C156.436 72.9102 158.076 73.1738 159.154 73.7012C160.232 74.2168 160.988 74.8789 161.422 75.6875C161.867 76.4844 162.09 77.9551 162.09 80.0996L162.037 85.8652C162.037 87.5059 162.113 88.7188 162.266 89.5039C162.43 90.2773 162.729 91.1094 163.162 92H158.275C158.146 91.6719 157.988 91.1855 157.801 90.541C157.719 90.248 157.66 90.0547 157.625 89.9609C156.781 90.7812 155.879 91.3965 154.918 91.8066C153.957 92.2168 152.932 92.4219 151.842 92.4219C149.92 92.4219 148.402 91.9004 147.289 90.8574C146.188 89.8145 145.637 88.4961 145.637 86.9023C145.637 85.8477 145.889 84.9102 146.393 84.0898C146.896 83.2578 147.6 82.625 148.502 82.1914C149.416 81.7461 150.729 81.3594 152.439 81.0312C154.748 80.5977 156.348 80.1934 157.238 79.8184V79.3262C157.238 78.377 157.004 77.7031 156.535 77.3047C156.066 76.8945 155.182 76.6895 153.881 76.6895C153.002 76.6895 152.316 76.8652 151.824 77.2168C151.332 77.5566 150.934 78.1602 150.629 79.0273ZM157.238 83.0352C156.605 83.2461 155.604 83.498 154.232 83.791C152.861 84.084 151.965 84.3711 151.543 84.6523C150.898 85.1094 150.576 85.6895 150.576 86.3926C150.576 87.084 150.834 87.6816 151.35 88.1855C151.865 88.6895 152.521 88.9414 153.318 88.9414C154.209 88.9414 155.059 88.6484 155.867 88.0625C156.465 87.6172 156.857 87.0723 157.045 86.4277C157.174 86.0059 157.238 85.2031 157.238 84.0195V83.0352ZM183.957 92H179.018V82.4727C179.018 80.457 178.912 79.1562 178.701 78.5703C178.49 77.9727 178.145 77.5098 177.664 77.1816C177.195 76.8535 176.627 76.6895 175.959 76.6895C175.104 76.6895 174.336 76.9238 173.656 77.3926C172.977 77.8613 172.508 78.4824 172.25 79.2559C172.004 80.0293 171.881 81.459 171.881 83.5449V92H166.941V73.332H171.529V76.0742C173.158 73.9648 175.209 72.9102 177.682 72.9102C178.771 72.9102 179.768 73.1094 180.67 73.5078C181.572 73.8945 182.252 74.3926 182.709 75.002C183.178 75.6113 183.5 76.3027 183.676 77.0762C183.863 77.8496 183.957 78.957 183.957 80.3984V92ZM206.105 92H201.518V89.2578C200.756 90.3242 199.854 91.1211 198.811 91.6484C197.779 92.1641 196.736 92.4219 195.682 92.4219C193.537 92.4219 191.697 91.5605 190.162 89.8379C188.639 88.1035 187.877 85.6895 187.877 82.5957C187.877 79.4316 188.621 77.0293 190.109 75.3887C191.598 73.7363 193.479 72.9102 195.752 72.9102C197.838 72.9102 199.643 73.7773 201.166 75.5117V66.2305H206.105V92ZM192.922 82.2617C192.922 84.2539 193.197 85.6953 193.748 86.5859C194.545 87.875 195.658 88.5195 197.088 88.5195C198.225 88.5195 199.191 88.0391 199.988 87.0781C200.785 86.1055 201.184 84.6582 201.184 82.7363C201.184 80.5918 200.797 79.0508 200.023 78.1133C199.25 77.1641 198.26 76.6895 197.053 76.6895C195.881 76.6895 194.896 77.1582 194.1 78.0957C193.314 79.0215 192.922 80.4102 192.922 82.2617ZM221.047 92V66.2305H229.396C232.561 66.2305 234.623 66.3594 235.584 66.6172C237.061 67.0039 238.297 67.8477 239.293 69.1484C240.289 70.4375 240.787 72.1074 240.787 74.1582C240.787 75.7402 240.5 77.0703 239.926 78.1484C239.352 79.2266 238.619 80.0762 237.729 80.6973C236.85 81.3066 235.953 81.7109 235.039 81.9102C233.797 82.1562 231.998 82.2793 229.643 82.2793H226.25V92H221.047ZM226.25 70.5898V77.9023H229.098C231.148 77.9023 232.52 77.7676 233.211 77.498C233.902 77.2285 234.441 76.8066 234.828 76.2324C235.227 75.6582 235.426 74.9902 235.426 74.2285C235.426 73.291 235.15 72.5176 234.6 71.9082C234.049 71.2988 233.352 70.918 232.508 70.7656C231.887 70.6484 230.639 70.5898 228.764 70.5898H226.25ZM257.311 92V89.2051C256.631 90.2012 255.734 90.9863 254.621 91.5605C253.52 92.1348 252.354 92.4219 251.123 92.4219C249.869 92.4219 248.744 92.1465 247.748 91.5957C246.752 91.0449 246.031 90.2715 245.586 89.2754C245.141 88.2793 244.918 86.9023 244.918 85.1445V73.332H249.857V81.9102C249.857 84.5352 249.945 86.1465 250.121 86.7441C250.309 87.3301 250.643 87.7988 251.123 88.1504C251.604 88.4902 252.213 88.6602 252.951 88.6602C253.795 88.6602 254.551 88.4316 255.219 87.9746C255.887 87.5059 256.344 86.9316 256.59 86.252C256.836 85.5605 256.959 83.8789 256.959 81.207V73.332H261.898V92H257.311ZM266.82 92V66.2305H271.76V75.5117C273.283 73.7773 275.088 72.9102 277.174 72.9102C279.447 72.9102 281.328 73.7363 282.816 75.3887C284.305 77.0293 285.049 79.3906 285.049 82.4727C285.049 85.6602 284.287 88.1152 282.764 89.8379C281.252 91.5605 279.412 92.4219 277.244 92.4219C276.178 92.4219 275.123 92.1582 274.08 91.6309C273.049 91.0918 272.158 90.3008 271.408 89.2578V92H266.82ZM271.725 82.2617C271.725 84.1953 272.029 85.625 272.639 86.5508C273.494 87.8633 274.631 88.5195 276.049 88.5195C277.139 88.5195 278.064 88.0566 278.826 87.1309C279.6 86.1934 279.986 84.7227 279.986 82.7188C279.986 80.5859 279.6 79.0508 278.826 78.1133C278.053 77.1641 277.062 76.6895 275.855 76.6895C274.672 76.6895 273.688 77.1523 272.902 78.0781C272.117 78.9922 271.725 80.3867 271.725 82.2617ZM289.039 92V66.2305H293.979V92H289.039ZM299.059 70.8008V66.2305H303.998V70.8008H299.059ZM299.059 92V73.332H303.998V92H299.059ZM307.338 86.6738L312.295 85.918C312.506 86.8789 312.934 87.6113 313.578 88.1152C314.223 88.6074 315.125 88.8535 316.285 88.8535C317.562 88.8535 318.523 88.6191 319.168 88.1504C319.602 87.8223 319.818 87.3828 319.818 86.832C319.818 86.457 319.701 86.1465 319.467 85.9004C319.221 85.666 318.67 85.4492 317.814 85.25C313.83 84.3711 311.305 83.5684 310.238 82.8418C308.762 81.834 308.023 80.4336 308.023 78.6406C308.023 77.0234 308.662 75.6641 309.939 74.5625C311.217 73.4609 313.197 72.9102 315.881 72.9102C318.436 72.9102 320.334 73.3262 321.576 74.1582C322.818 74.9902 323.674 76.2207 324.143 77.8496L319.484 78.7109C319.285 77.9844 318.904 77.4277 318.342 77.041C317.791 76.6543 317 76.4609 315.969 76.4609C314.668 76.4609 313.736 76.6426 313.174 77.0059C312.799 77.2637 312.611 77.5977 312.611 78.0078C312.611 78.3594 312.775 78.6582 313.104 78.9043C313.549 79.2324 315.084 79.6953 317.709 80.293C320.346 80.8906 322.186 81.623 323.229 82.4902C324.26 83.3691 324.775 84.5938 324.775 86.1641C324.775 87.875 324.061 89.3457 322.631 90.5762C321.201 91.8066 319.086 92.4219 316.285 92.4219C313.742 92.4219 311.727 91.9062 310.238 90.875C308.762 89.8438 307.795 88.4434 307.338 86.6738ZM334.039 66.2305V75.7051C335.633 73.8418 337.537 72.9102 339.752 72.9102C340.889 72.9102 341.914 73.1211 342.828 73.543C343.742 73.9648 344.428 74.5039 344.885 75.1602C345.354 75.8164 345.67 76.543 345.834 77.3398C346.01 78.1367 346.098 79.373 346.098 81.0488V92H341.158V82.1387C341.158 80.1816 341.064 78.9395 340.877 78.4121C340.689 77.8848 340.355 77.4688 339.875 77.1641C339.406 76.8477 338.814 76.6895 338.1 76.6895C337.279 76.6895 336.547 76.8887 335.902 77.2871C335.258 77.6855 334.783 78.2891 334.479 79.0977C334.186 79.8945 334.039 81.0781 334.039 82.6484V92H329.1V66.2305H334.039ZM361.936 86.0586L366.857 86.8848C366.225 88.6895 365.223 90.0664 363.852 91.0156C362.492 91.9531 360.787 92.4219 358.736 92.4219C355.49 92.4219 353.088 91.3613 351.529 89.2402C350.299 87.541 349.684 85.3965 349.684 82.8066C349.684 79.7129 350.492 77.293 352.109 75.5469C353.727 73.7891 355.771 72.9102 358.244 72.9102C361.021 72.9102 363.213 73.8301 364.818 75.6699C366.424 77.498 367.191 80.3047 367.121 84.0898H354.746C354.781 85.5547 355.18 86.6973 355.941 87.5176C356.703 88.3262 357.652 88.7305 358.789 88.7305C359.562 88.7305 360.213 88.5195 360.74 88.0977C361.268 87.6758 361.666 86.9961 361.936 86.0586ZM362.217 81.0664C362.182 79.6367 361.812 78.5527 361.109 77.8145C360.406 77.0645 359.551 76.6895 358.543 76.6895C357.465 76.6895 356.574 77.082 355.871 77.8672C355.168 78.6523 354.822 79.7188 354.834 81.0664H362.217ZM375.893 92H370.953V73.332H375.541V75.9863C376.326 74.7324 377.029 73.9062 377.65 73.5078C378.283 73.1094 378.998 72.9102 379.795 72.9102C380.92 72.9102 382.004 73.2207 383.047 73.8418L381.518 78.1484C380.686 77.6094 379.912 77.3398 379.197 77.3398C378.506 77.3398 377.92 77.5332 377.439 77.9199C376.959 78.2949 376.578 78.9805 376.297 79.9766C376.027 80.9727 375.893 83.0586 375.893 86.2344V92ZM383.451 86.6738L388.408 85.918C388.619 86.8789 389.047 87.6113 389.691 88.1152C390.336 88.6074 391.238 88.8535 392.398 88.8535C393.676 88.8535 394.637 88.6191 395.281 88.1504C395.715 87.8223 395.932 87.3828 395.932 86.832C395.932 86.457 395.814 86.1465 395.58 85.9004C395.334 85.666 394.783 85.4492 393.928 85.25C389.943 84.3711 387.418 83.5684 386.352 82.8418C384.875 81.834 384.137 80.4336 384.137 78.6406C384.137 77.0234 384.775 75.6641 386.053 74.5625C387.33 73.4609 389.311 72.9102 391.994 72.9102C394.549 72.9102 396.447 73.3262 397.689 74.1582C398.932 74.9902 399.787 76.2207 400.256 77.8496L395.598 78.7109C395.398 77.9844 395.018 77.4277 394.455 77.041C393.904 76.6543 393.113 76.4609 392.082 76.4609C390.781 76.4609 389.85 76.6426 389.287 77.0059C388.912 77.2637 388.725 77.5977 388.725 78.0078C388.725 78.3594 388.889 78.6582 389.217 78.9043C389.662 79.2324 391.197 79.6953 393.822 80.293C396.459 80.8906 398.299 81.623 399.342 82.4902C400.373 83.3691 400.889 84.5938 400.889 86.1641C400.889 87.875 400.174 89.3457 398.744 90.5762C397.314 91.8066 395.199 92.4219 392.398 92.4219C389.855 92.4219 387.84 91.9062 386.352 90.875C384.875 89.8438 383.908 88.4434 383.451 86.6738Z" fill="white"/>
<defs>
<filter id="filter0_b" x="-3" y="-3" width="552" height="123" filterUnits="userSpaceOnUse" color-interpolation-filters="sRGB">
<feFlood flood-opacity="0" result="BackgroundImageFix"/>
<feGaussianBlur in="BackgroundImage" stdDeviation="1.5"/>
<feComposite in2="SourceAlpha" operator="in" result="effect1_backgroundBlur"/>
<feBlend mode="normal" in="SourceGraphic" in2="effect1_backgroundBlur" result="shape"/>
</filter>
<linearGradient id="paint0_linear" x1="-115.024" y1="-8.42919" x2="-106.846" y2="138.109" gradientUnits="userSpaceOnUse">
<stop stop-color="white"/>
<stop offset="1" stop-color="white" stop-opacity="0"/>
</linearGradient>
</defs>
</svg>
