<svg width="1440" height="297" viewBox="0 0 1440 297" fill="none" xmlns="http://www.w3.org/2000/svg">
<path d="M76.9355 183.889C52.7419 205.375 26.8549 225.638 0.00012207 244.678V296.732H1440V290.095C1351.94 278.042 1265.32 258.652 1181.61 232.625C818.71 308.087 427.742 292.016 76.9355 183.889Z" fill="#8E60A8"/>
<path d="M1181.61 232.625C1265.32 258.652 1351.94 278.042 1440 290.095V184.763C1375.89 202.58 1309.35 214.284 1241.85 219.175C1210.89 221.445 1179.68 222.494 1148.71 221.969C1159.6 225.638 1170.73 229.131 1181.61 232.625Z" fill="#00B5AD"/>
<path d="M76.9354 183.889C136.935 130.786 188.226 70.6962 228.629 6.06458C176.855 0.300125 124.597 -1.62135 72.3387 2.04692C48.1452 3.61905 23.9516 6.76329 3.05176e-05 11.1303V158.386V244.503C26.8548 225.637 52.5 205.2 76.9354 183.889Z" fill="#00AEE4"/>
<path d="M1181.61 232.625C1170.48 229.131 1159.6 225.637 1148.71 221.969C1119.19 221.445 1089.44 219.698 1060.16 216.729C890.081 199.086 731.129 139.869 571.452 87.9895C460.887 52.0054 345.968 18.9908 228.871 6.06451C188.468 70.6962 137.177 130.786 77.1775 183.889C427.742 292.016 818.71 308.086 1181.61 232.625Z" fill="#FAC90E"/>
<path d="M541.935 212.886C537.822 213.236 533.468 213.41 529.355 213.76C525 214.109 520.403 214.284 516.048 214.458C511.935 214.633 507.581 214.982 503.468 215.157C498.871 215.332 494.516 215.681 489.919 215.856C485.806 216.03 481.694 216.205 477.339 216.38C472.742 216.554 468.145 216.729 463.548 216.904C459.435 217.079 455.322 217.253 451.21 217.428C446.613 217.603 442.016 217.777 437.419 217.952C433.306 218.127 429.193 218.301 425.081 218.301C420.484 218.476 415.887 218.476 411.29 218.651C407.177 218.825 403.064 218.825 398.952 219C394.355 219.175 389.516 219.175 384.919 219.175C380.806 219.175 376.935 219.349 372.823 219.349C367.984 219.349 363.387 219.524 358.548 219.524C354.677 219.524 350.565 219.699 346.694 219.699C341.855 219.699 337.016 219.699 332.177 219.699C328.306 219.699 324.435 219.699 320.806 219.699C315.726 219.699 310.645 219.699 305.565 219.699C301.935 219.699 298.306 219.699 294.677 219.699C289.597 219.699 284.274 219.524 279.193 219.524C275.806 219.524 272.177 219.524 268.79 219.349C263.226 219.175 257.661 219.175 252.097 219C248.952 219 245.806 218.825 242.661 218.825C233.952 218.651 225.242 218.301 216.774 218.127C215.081 218.825 213.387 219.699 211.452 220.397C418.548 269.133 635.564 287.649 850.161 275.771C947.419 270.356 1043.95 258.827 1138.79 241.184C1153.06 238.564 1167.34 235.769 1181.61 232.8C1170.48 229.306 1159.6 225.813 1148.71 222.144C1119.19 221.62 1089.44 219.873 1060.16 216.904C1054.35 216.38 1048.79 215.681 1043.23 214.982C980.081 207.296 918.145 194.195 857.419 177.95C834.193 181.793 810.968 185.287 787.5 188.431C774.919 190.178 762.339 191.75 749.758 193.322C745.645 193.846 741.532 194.37 737.419 194.894C728.952 195.942 720.484 196.99 712.258 197.864C707.177 198.388 702.097 198.912 697.016 199.436C689.516 200.309 682.016 201.183 674.516 201.881C669.193 202.405 663.629 202.929 658.306 203.453C650.564 204.152 643.064 205.026 635.323 205.724H635.081C630 206.248 625.161 206.598 620.081 206.947C615.968 207.296 611.613 207.646 607.5 207.995C603.145 208.345 598.548 208.694 594.193 209.043C590.081 209.393 585.726 209.742 581.613 210.091C577.258 210.441 572.661 210.79 568.306 211.139C564.194 211.489 559.839 211.838 555.726 212.013C550.887 212.362 546.29 212.712 541.935 212.886Z" fill="#F9A020"/>
<path d="M847.5 275C537 292.9 323.149 255.613 78.5848 182.541C13.8641 217.898 -49.9976 255.875 -113 296.732H940C904.49 287.304 882.438 286.524 847.5 275Z" fill="#EE2F78"/>
<path d="M1337.42 272.627C1284.68 261.797 1232.42 248.521 1181.61 232.625C1167.34 235.595 1153.06 238.39 1138.79 241.01C1140.73 241.534 1142.66 241.883 1144.6 242.407C1207.74 257.779 1272.58 269.133 1337.42 272.627Z" fill="#634A9E"/>
<path d="M1337.42 272.627C1371.29 279.614 1405.4 285.378 1440 290.095V271.229C1405.89 274.199 1371.77 274.548 1337.42 272.627Z" fill="#5ABD77"/>
<path d="M228.629 5.89017C176.855 0.125725 124.597 -1.79576 72.3387 1.87252C48.1452 3.44464 23.9516 6.58887 3.05176e-05 10.9559V94.2783C60.7258 83.2735 121.935 75.5876 183.145 71.0459C199.355 50.0843 214.597 28.2492 228.629 5.89017Z" fill="#7CCBB8"/>
<path d="M565.403 86.0684C456.532 50.783 343.548 18.8165 228.629 6.06487C214.597 28.4239 199.355 50.0842 182.903 71.2205C310.645 61.7878 438.871 66.6789 565.403 86.0684Z" fill="#F9A020"/>
</svg>
