<svg width="862" height="41" viewBox="0 0 862 41" fill="none" xmlns="http://www.w3.org/2000/svg">
<path d="M12.768 40L0 0.799997H9.8L18.48 29.64L27.16 0.799997H36.96L24.192 40H12.768ZM40.3288 0.799997H49.2888V40H40.3288V0.799997ZM76.6321 40L69.2401 27.12H64.9841V40H56.0241V0.799997H71.7041C75.4374 0.799997 78.6107 2.10666 81.2241 4.72C83.8374 7.33333 85.1441 10.5067 85.1441 14.24C85.1441 16.6293 84.4721 18.8507 83.1281 20.904C81.8214 22.92 80.0854 24.488 77.9201 25.608L86.2641 40H76.6321ZM64.9841 9.2V19.28H71.7041C72.9361 19.28 73.9814 18.7947 74.8401 17.824C75.7361 16.8533 76.1841 15.6587 76.1841 14.24C76.1841 12.8213 75.7361 11.6267 74.8401 10.656C73.9814 9.68533 72.9361 9.2 71.7041 9.2H64.9841ZM115.977 0.799997V9.424H105.897V40H96.9369V9.424H86.8569V0.799997H115.977ZM145.603 37.144C142.766 39.5707 139.144 40.784 134.739 40.784C130.334 40.784 126.712 39.5707 123.875 37.144C121.038 34.7173 119.619 31.4507 119.619 27.344V0.799997H128.579V26.56C128.579 30.2187 130.632 32.048 134.739 32.048C138.846 32.048 140.899 30.2187 140.899 26.56V0.799997H149.859V27.344C149.859 31.4507 148.44 34.7173 145.603 37.144ZM180.147 40L178.187 33.84H163.627L161.667 40H151.867L165.195 0.799997H176.619L189.947 40H180.147ZM166.315 25.44H175.499L170.907 11.048L166.315 25.44ZM202.25 31.376H216.25V40H193.29V0.799997H202.25V31.376ZM292.694 40L290.734 33.84H276.174L274.214 40H264.414L277.742 0.799997H289.166L302.494 40H292.694ZM278.862 25.44H288.046L283.454 11.048L278.862 25.44ZM363.514 40L361.554 33.84H346.994L345.034 40H335.234L348.562 0.799997H359.986L373.314 40H363.514ZM349.682 25.44H358.866L354.274 11.048L349.682 25.44ZM482.719 19.672C485.929 21.7253 487.535 24.6747 487.535 28.52C487.535 31.9173 486.321 34.68 483.895 36.808C481.468 38.936 478.463 40 474.879 40H458.415V0.799997H473.759C477.268 0.799997 480.199 1.84533 482.551 3.936C484.94 5.98933 486.135 8.67733 486.135 12C486.135 15.136 484.996 17.6933 482.719 19.672ZM473.759 9.2H467.375V16.144H473.759C474.767 16.144 475.588 15.8267 476.223 15.192C476.857 14.52 477.175 13.68 477.175 12.672C477.175 11.664 476.857 10.8427 476.223 10.208C475.588 9.536 474.767 9.2 473.759 9.2ZM474.879 31.6C475.999 31.6 476.895 31.264 477.567 30.592C478.239 29.8827 478.575 28.968 478.575 27.848C478.575 26.728 478.239 25.832 477.567 25.16C476.895 24.4507 475.999 24.096 474.879 24.096H467.375V31.6H474.879ZM525.145 34.904C521.187 38.824 516.371 40.784 510.697 40.784C505.022 40.784 500.206 38.824 496.249 34.904C492.291 30.984 490.313 26.1493 490.313 20.4C490.313 14.6507 492.291 9.816 496.249 5.896C500.206 1.976 505.022 0.0159974 510.697 0.0159974C516.371 0.0159974 521.187 1.976 525.145 5.896C529.102 9.816 531.081 14.6507 531.081 20.4C531.081 26.1493 529.102 30.984 525.145 34.904ZM502.521 28.8C504.723 30.9653 507.449 32.048 510.697 32.048C513.945 32.048 516.651 30.9653 518.817 28.8C521.019 26.6347 522.121 23.8347 522.121 20.4C522.121 16.9653 521.019 14.1653 518.817 12C516.651 9.83467 513.945 8.752 510.697 8.752C507.449 8.752 504.723 9.83467 502.521 12C500.355 14.1653 499.273 16.9653 499.273 20.4C499.273 23.8347 500.355 26.6347 502.521 28.8ZM569.278 34.904C565.32 38.824 560.504 40.784 554.83 40.784C549.155 40.784 544.339 38.824 540.382 34.904C536.424 30.984 534.446 26.1493 534.446 20.4C534.446 14.6507 536.424 9.816 540.382 5.896C544.339 1.976 549.155 0.0159974 554.83 0.0159974C560.504 0.0159974 565.32 1.976 569.278 5.896C573.235 9.816 575.214 14.6507 575.214 20.4C575.214 26.1493 573.235 30.984 569.278 34.904ZM546.654 28.8C548.856 30.9653 551.582 32.048 554.83 32.048C558.078 32.048 560.784 30.9653 562.95 28.8C565.152 26.6347 566.254 23.8347 566.254 20.4C566.254 16.9653 565.152 14.1653 562.95 12C560.784 9.83467 558.078 8.752 554.83 8.752C551.582 8.752 548.856 9.83467 546.654 12C544.488 14.1653 543.406 16.9653 543.406 20.4C543.406 23.8347 544.488 26.6347 546.654 28.8ZM611.954 40H601.762L589.218 21.856V40H580.258V0.799997H589.218V17.824L601.202 0.799997H611.394L598.178 19.896L611.954 40ZM653.113 9.424H638.273V16.984H652.833V25.608H638.273V40H629.313V0.799997H653.113V9.424ZM667.367 31.376H683.047V40H658.407V0.799997H682.767V9.424H667.367V15.92H681.367V24.432H667.367V31.376ZM701.822 40.784C697.828 40.784 694.486 39.9253 691.798 38.208C689.148 36.4533 687.262 34.0827 686.142 31.096L693.87 26.616C695.438 30.2373 698.182 32.048 702.102 32.048C705.649 32.048 707.422 30.984 707.422 28.856C707.422 27.6987 706.844 26.8027 705.686 26.168C704.566 25.496 702.438 24.7307 699.302 23.872C697.66 23.424 696.222 22.92 694.99 22.36C693.758 21.8 692.545 21.072 691.35 20.176C690.193 19.2427 689.297 18.0853 688.662 16.704C688.065 15.3227 687.766 13.736 687.766 11.944C687.766 8.32266 689.054 5.42933 691.63 3.264C694.244 1.09866 697.342 0.0159974 700.926 0.0159974C704.137 0.0159974 706.974 0.781331 709.438 2.312C711.902 3.80533 713.844 5.98933 715.262 8.864L707.702 13.288C706.993 11.7947 706.116 10.6747 705.07 9.928C704.025 9.144 702.644 8.752 700.926 8.752C699.582 8.752 698.537 9.05066 697.79 9.648C697.081 10.208 696.726 10.8987 696.726 11.72C696.726 12.6907 697.174 13.5307 698.07 14.24C699.004 14.9493 700.908 15.7333 703.782 16.592C705.35 17.0773 706.564 17.4693 707.422 17.768C708.281 18.0667 709.364 18.5707 710.67 19.28C712.014 19.952 713.022 20.68 713.694 21.464C714.404 22.2107 715.02 23.2187 715.542 24.488C716.102 25.72 716.382 27.1387 716.382 28.744C716.382 32.4773 715.038 35.4267 712.35 37.592C709.662 39.72 706.153 40.784 701.822 40.784ZM745.758 0.799997V9.424H735.678V40H726.718V9.424H716.638V0.799997H745.758ZM749.68 0.799997H758.64V40H749.68V0.799997ZM774.784 40L762.016 0.799997H771.816L780.496 29.64L789.176 0.799997H798.976L786.208 40H774.784ZM825.022 40L823.062 33.84H808.502L806.542 40H796.742L810.07 0.799997H821.494L834.822 40H825.022ZM811.19 25.44H820.374L815.782 11.048L811.19 25.44ZM847.125 31.376H861.125V40H838.165V0.799997H847.125V31.376Z" fill="#CA316B"/>
<path d="M258.5 19.672C261.711 21.7253 263.316 24.6747 263.316 28.52C263.316 31.9173 262.103 34.68 259.676 36.808C257.249 38.936 254.244 40 250.66 40H234.196V0.799997H249.54C253.049 0.799997 255.98 1.84533 258.332 3.936C260.721 5.98933 261.916 8.67733 261.916 12C261.916 15.136 260.777 17.6933 258.5 19.672ZM249.54 9.2H243.156V16.144H249.54C250.548 16.144 251.369 15.8267 252.004 15.192C252.639 14.52 252.956 13.68 252.956 12.672C252.956 11.664 252.639 10.8427 252.004 10.208C251.369 9.536 250.548 9.2 249.54 9.2ZM250.66 31.6C251.78 31.6 252.676 31.264 253.348 30.592C254.02 29.8827 254.356 28.968 254.356 27.848C254.356 26.728 254.02 25.832 253.348 25.16C252.676 24.4507 251.78 24.096 250.66 24.096H243.156V31.6H250.66Z" fill="#3D429C"/>
<path d="M319.557 40.784C315.562 40.784 312.221 39.9253 309.533 38.208C306.882 36.4533 304.997 34.0827 303.877 31.096L311.605 26.616C313.173 30.2373 315.917 32.048 319.837 32.048C323.383 32.048 325.157 30.984 325.157 28.856C325.157 27.6987 324.578 26.8027 323.421 26.168C322.301 25.496 320.173 24.7307 317.037 23.872C315.394 23.424 313.957 22.92 312.725 22.36C311.493 21.8 310.279 21.072 309.085 20.176C307.927 19.2427 307.031 18.0853 306.397 16.704C305.799 15.3227 305.501 13.736 305.501 11.944C305.501 8.32266 306.789 5.42933 309.365 3.264C311.978 1.09866 315.077 0.0159974 318.661 0.0159974C321.871 0.0159974 324.709 0.781331 327.173 2.312C329.637 3.80533 331.578 5.98933 332.997 8.864L325.437 13.288C324.727 11.7947 323.85 10.6747 322.805 9.928C321.759 9.144 320.378 8.752 318.661 8.752C317.317 8.752 316.271 9.05066 315.525 9.648C314.815 10.208 314.461 10.8987 314.461 11.72C314.461 12.6907 314.909 13.5307 315.805 14.24C316.738 14.9493 318.642 15.7333 321.517 16.592C323.085 17.0773 324.298 17.4693 325.157 17.768C326.015 18.0667 327.098 18.5707 328.405 19.28C329.749 19.952 330.757 20.68 331.429 21.464C332.138 22.2107 332.754 23.2187 333.277 24.488C333.837 25.72 334.117 27.1387 334.117 28.744C334.117 32.4773 332.773 35.4267 330.085 37.592C327.397 39.72 323.887 40.784 319.557 40.784ZM440.493 0.799997V9.424H430.413V40H421.453V9.424H411.373V0.799997H440.493Z" fill="#4E9C65"/>
<path d="M398.497 0.799997H407.457V40H400.737L385.617 18.72V40H376.657V0.799997H383.377L398.497 22.08V0.799997Z" fill="#DE6E02"/>
</svg>
