<svg width="281" height="34" viewBox="0 0 281 34" fill="none" xmlns="http://www.w3.org/2000/svg">
<path d="M18.6334 16.256C21.608 18.0347 23.0954 20.626 23.0954 24.03C23.0954 27.0047 22.0527 29.3507 19.9674 31.068C17.9127 32.7853 15.1067 33.644 11.5494 33.644C7.96135 33.644 5.14002 32.7853 3.08535 31.068C1.03068 29.3507 0.00335155 27.0047 0.00335155 24.03C0.00335155 20.626 1.47535 18.0347 4.41935 16.256C2.18069 14.6307 1.06135 12.4073 1.06135 9.586C1.06135 6.61133 2.05802 4.296 4.05135 2.64C6.07535 0.983998 8.57469 0.155998 11.5494 0.155998C14.524 0.155998 17.008 0.983998 19.0014 2.64C20.9947 4.296 21.9914 6.61133 21.9914 9.586C21.9914 12.438 20.872 14.6613 18.6334 16.256ZM14.5394 7.148C13.7727 6.47333 12.776 6.136 11.5494 6.136C10.3227 6.136 9.32602 6.47333 8.55935 7.148C7.79269 7.82267 7.40935 8.74267 7.40935 9.908C7.40935 11.0733 7.79269 12.0087 8.55935 12.714C9.32602 13.3887 10.3227 13.726 11.5494 13.726C12.776 13.726 13.7727 13.3887 14.5394 12.714C15.306 12.0087 15.6894 11.0733 15.6894 9.908C15.6894 8.74267 15.306 7.82267 14.5394 7.148ZM7.73135 26.514C8.71269 27.2807 9.98535 27.664 11.5494 27.664C13.1134 27.664 14.3707 27.2807 15.3214 26.514C16.3027 25.7167 16.7934 24.6127 16.7934 23.202C16.7934 21.822 16.3027 20.7487 15.3214 19.982C14.3707 19.1847 13.1134 18.786 11.5494 18.786C9.98535 18.786 8.71269 19.1847 7.73135 19.982C6.78069 20.7487 6.30535 21.822 6.30535 23.202C6.30535 24.6127 6.78069 25.7167 7.73135 26.514ZM27.6199 21.96V16.256H44.8699V21.96H27.6199ZM56.8245 0.799998H62.3445V33H55.9965V7.516L49.9245 9.218L48.3605 3.79L56.8245 0.799998ZM81.8816 13.864C84.0589 14.508 85.8222 15.6427 87.1716 17.268C88.5516 18.8627 89.2416 20.7947 89.2416 23.064C89.2416 26.376 88.1222 28.9673 85.8836 30.838C83.6756 32.7087 80.9616 33.644 77.7416 33.644C75.2269 33.644 72.9729 33.0767 70.9796 31.942C69.0169 30.7767 67.5909 29.0747 66.7016 26.836L72.1296 23.708C72.9269 26.192 74.7976 27.434 77.7416 27.434C79.3669 27.434 80.6242 27.0507 81.5136 26.284C82.4336 25.4867 82.8936 24.4133 82.8936 23.064C82.8936 21.7453 82.4336 20.6873 81.5136 19.89C80.6242 19.0927 79.3669 18.694 77.7416 18.694H76.3616L73.9236 15.014L80.2716 6.734H67.6676V0.799998H87.9076V6.044L81.8816 13.864ZM124.428 6.872H111.548V14.508H124.06V20.58H111.548V33H105.2V0.799998H124.428V6.872ZM135.401 26.928H148.971V33H129.053V0.799998H148.741V6.872H135.401V13.726H147.591V19.706H135.401V26.928ZM172.904 16.302C175.725 17.9273 177.136 20.3807 177.136 23.662C177.136 26.3913 176.17 28.63 174.238 30.378C172.306 32.126 169.929 33 167.108 33H153.446V0.799998H166.142C168.902 0.799998 171.217 1.65866 173.088 3.376C174.989 5.06266 175.94 7.22466 175.94 9.862C175.94 12.53 174.928 14.6767 172.904 16.302ZM166.142 6.734H159.794V13.818H166.142C167.123 13.818 167.936 13.4807 168.58 12.806C169.255 12.1313 169.592 11.288 169.592 10.276C169.592 9.264 169.27 8.42067 168.626 7.746C167.982 7.07133 167.154 6.734 166.142 6.734ZM167.108 27.066C168.181 27.066 169.071 26.7133 169.776 26.008C170.481 25.272 170.834 24.352 170.834 23.248C170.834 22.1747 170.481 21.2853 169.776 20.58C169.071 19.844 168.181 19.476 167.108 19.476H159.794V27.066H167.108ZM191.05 33V28.262L202.044 16.946C204.497 14.37 205.724 12.2233 205.724 10.506C205.724 9.24867 205.325 8.23667 204.528 7.47C203.761 6.70333 202.764 6.32 201.538 6.32C199.115 6.32 197.321 7.57733 196.156 10.092L190.82 6.964C191.832 4.756 193.288 3.06933 195.19 1.904C197.091 0.738664 199.176 0.155998 201.446 0.155998C204.359 0.155998 206.858 1.076 208.944 2.916C211.029 4.72533 212.072 7.17867 212.072 10.276C212.072 13.6187 210.308 17.0533 206.782 20.58L200.48 26.882H212.578V33H191.05ZM228.286 33.644C224.269 33.644 221.11 32.126 218.81 29.09C216.541 26.0233 215.406 21.96 215.406 16.9C215.406 11.84 216.541 7.792 218.81 4.756C221.11 1.68933 224.269 0.155998 228.286 0.155998C232.334 0.155998 235.493 1.68933 237.762 4.756C240.031 7.792 241.166 11.84 241.166 16.9C241.166 21.96 240.031 26.0233 237.762 29.09C235.493 32.126 232.334 33.644 228.286 33.644ZM223.41 24.766C224.514 26.5447 226.139 27.434 228.286 27.434C230.433 27.434 232.058 26.5293 233.162 24.72C234.297 22.9107 234.864 20.304 234.864 16.9C234.864 13.4653 234.297 10.8433 233.162 9.034C232.058 7.22466 230.433 6.32 228.286 6.32C226.139 6.32 224.514 7.22466 223.41 9.034C222.306 10.8433 221.754 13.4653 221.754 16.9C221.754 20.3347 222.306 22.9567 223.41 24.766ZM243.204 33V28.262L254.198 16.946C256.651 14.37 257.878 12.2233 257.878 10.506C257.878 9.24867 257.479 8.23667 256.682 7.47C255.915 6.70333 254.919 6.32 253.692 6.32C251.269 6.32 249.475 7.57733 248.31 10.092L242.974 6.964C243.986 4.756 245.443 3.06933 247.344 1.904C249.245 0.738664 251.331 0.155998 253.6 0.155998C256.513 0.155998 259.013 1.076 261.098 2.916C263.183 4.72533 264.226 7.17867 264.226 10.276C264.226 13.6187 262.463 17.0533 258.936 20.58L252.634 26.882H264.732V33H243.204ZM274.696 0.799998H280.216V33H273.868V7.516L267.796 9.218L266.232 3.79L274.696 0.799998Z" fill="black"/>
</svg>
